<svg xmlns="http://www.w3.org/2000/svg" version="1.1" xmlns:xlink="http://www.w3.org/1999/xlink" xmlns:svgjs="http://svgjs.dev/svgjs" width="1000" height="625" viewBox="0 0 1000 625"><g transform="matrix(1,0,0,1,0,0)"><svg viewBox="0 0 576 360" data-background-color="#ffffff" preserveAspectRatio="xMidYMid meet" height="625" width="1000" xmlns="http://www.w3.org/2000/svg" xmlns:xlink="http://www.w3.org/1999/xlink"><g id="tight-bounds" transform="matrix(1,0,0,1,0,0)"><svg viewBox="0 0 576 360" height="360" width="576"><g><svg></svg></g><g><svg viewBox="0 0 576 360" height="360" width="576"><g><path xmlns="http://www.w3.org/2000/svg" d="M132.115 90l155.885-90 155.885 90v180l-155.885 90-155.885-90z" fill="#ff0000" fill-rule="nonzero" stroke="none" stroke-width="1" stroke-linecap="butt" stroke-linejoin="miter" stroke-miterlimit="10" stroke-dasharray="" stroke-dashoffset="0" font-family="none" font-weight="none" font-size="none" text-anchor="none" style="mix-blend-mode: normal" data-fill-palette-color="tertiary"></path></g><g transform="matrix(1,0,0,1,237.66187990030542,99)"><svg viewBox="0 0 100.67624019938916 162" height="162" width="100.67624019938916"><g><svg viewBox="0 0 100.67624019938916 162" height="162" width="100.67624019938916"><g><svg viewBox="0 0 132.44962709302328 213.1271444640218" height="162" width="100.67624019938916"><g><svg viewBox="0 0 132.44962709302328 213.1271444640218" height="213.1271444640218" width="132.44962709302328"><g id="textblocktransform"><svg viewBox="0 0 132.44962709302328 213.1271444640218" height="213.1271444640218" width="132.44962709302328" id="textblock"><g><svg viewBox="0 0 132.44962709302328 160.99884" height="160.99884" width="132.44962709302328"><g transform="matrix(1,0,0,1,0,0)"><svg width="132.44962709302328" viewBox="1.4500000476837158 -33.75 28.299999237060547 34.400001525878906" height="160.99884" data-palette-color="#ffffff"><path d="M2.5-27.5Q2.5-28.2 2.93-28.63 3.35-29.05 4.1-29.4L4.1-29.4Q4.35-29.55 5.93-30.3 7.5-31.05 8.95-31.45L8.95-31.45Q9.4-32.45 10.33-33.1 11.25-33.75 12.7-33.75L12.7-33.75Q13.55-33.75 14.1-33.43 14.65-33.1 14.85-32.6L14.85-32.6Q16.7-33.2 19.3-33.2L19.3-33.2Q22.55-33.2 24.93-31.83 27.3-30.45 28.53-28.05 29.75-25.65 29.75-22.65L29.75-22.65Q29.75-22.05 29.6-21L29.6-21Q27.55-9.3 12.1-9.3L12.1-9.3Q10.7-9.3 10.05-9.35L10.05-9.35 9.4-6.95Q8.35-3.1 8.35-3L8.35-3Q7.95-1.25 7.13-0.3 6.3 0.65 4.45 0.65L4.45 0.65Q2.9 0.65 2.18 0.13 1.45-0.4 1.45-1.65L1.45-1.65Q1.45-2.2 1.6-2.7L1.6-2.7 7.65-26.05Q5.05-25.3 3.7-24L3.7-24Q3.15-24.6 2.83-25.58 2.5-26.55 2.5-27.5L2.5-27.5ZM11.1-14Q11.7-13.95 12.8-13.95L12.8-13.95Q17.55-13.95 20.33-15.75 23.1-17.55 23.9-21.3L23.9-21.3Q24.05-22.15 24.05-22.55L24.05-22.55Q24.05-25.35 22.5-26.73 20.95-28.1 18.15-28.1L18.15-28.1Q16.65-28.1 14.3-27.4L14.3-27.4Q12.35-19.65 11.1-14L11.1-14Z" opacity="1" transform="matrix(1,0,0,1,0,0)" fill="#ffffff" class="wordmark-text-0" data-fill-palette-color="quaternary" id="text-0"></path></svg></g></svg></g><g transform="matrix(1,0,0,1,0,199.00680215184002)"><svg viewBox="0 0 132.44962709302328 14.120342312181808" height="14.120342312181808" width="132.44962709302328"><g transform="matrix(1,0,0,1,0,0)"><svg width="132.44962709302328" viewBox="2.5 -34.25 324.5199890136719 34.599998474121094" height="14.120342312181808" data-palette-color="#ffffff"><path d="M10.2 0L2.5 0 5.4-33.7 13.85-33.7 18.55-21.5Q19.75-18.45 20.6-15.9 21.45-13.35 21.7-12.3L21.7-12.3 21.95-11.3Q22.75-14.6 25.45-21.5L25.45-21.5 30.2-33.7 38.65-33.7 42.15 0 34.45 0 33.2-13.05 32.55-22.9Q31.25-19.15 28.95-13.05L28.95-13.05 24.2-0.35 19.65-0.35 14.95-13.05Q13.8-16.15 13-18.6 12.2-21.05 11.95-22L11.95-22 11.7-22.9Q11.7-19.35 11.25-13.05L11.25-13.05 10.2 0ZM67.2-33.7L76.15-33.7 64.5-12.4 64.5 0 56.8 0 56.8-12.35 45.3-33.7 54.3-33.7 56.35-28.8Q57.95-25 59-22.3 60.05-19.6 60.35-18.8L60.35-18.8 60.6-18Q61.1-20.25 65-28.8L65-28.8 67.2-33.7ZM100.24-27.55L100.24-17 102.79-17Q108.89-17 108.89-22.55L108.89-22.55Q108.89-27.55 103.24-27.55L103.24-27.55 100.24-27.55ZM92.54 0L92.54-33.7 104.14-33.7Q109.74-33.7 113.22-30.55 116.69-27.4 116.69-22.55L116.69-22.55Q116.69-17 113.07-13.95 109.44-10.9 104.14-10.9L104.14-10.9 100.24-10.9 100.24 0 92.54 0ZM119.44-16.95L119.44-16.95Q119.44-24.7 123.92-29.48 128.39-34.25 135.84-34.25L135.84-34.25Q143.34-34.25 147.79-29.5 152.24-24.75 152.24-16.95L152.24-16.95Q152.24-9.2 147.77-4.42 143.29 0.35 135.84 0.35L135.84 0.35Q128.34 0.35 123.89-4.4 119.44-9.15 119.44-16.95ZM129.89-24.48Q127.69-21.7 127.69-16.95 127.69-12.2 129.89-9.43 132.09-6.65 135.84-6.65 139.59-6.65 141.79-9.43 143.99-12.2 143.99-16.95 143.99-21.7 141.79-24.48 139.59-27.25 135.84-27.25 132.09-27.25 129.89-24.48ZM168.99-27.45L165.19-27.45 165.19-17.95 168.84-17.95Q173.84-17.95 173.84-22.85L173.84-22.85Q173.84-25 172.54-26.23 171.24-27.45 168.99-27.45L168.99-27.45ZM184.04 0L174.84 0 167.54-11.7 165.19-11.7 165.19 0 157.49 0 157.49-33.7 169.14-33.7Q174.79-33.7 178.21-30.7 181.64-27.7 181.64-22.9L181.64-22.9Q181.64-15.7 175.49-12.95L175.49-12.95 184.04 0ZM186.44-33.7L210.64-33.7 210.64-27.5 202.44-27.5 202.44 0 194.69 0 194.69-27.5 186.44-27.5 186.44-33.7ZM235.93-33.7L235.93-27.55 223.13-27.55 223.13-18.85 234.28-18.85 234.28-12.7 223.13-12.7 223.13 0 215.38 0 215.38-33.7 235.93-33.7ZM248.88 0L241.18 0 241.18-33.7 248.88-33.7 248.88 0ZM263.58-33.7L263.58-6.75 276.03-6.75 276.03 0 255.88 0 255.88-33.7 263.58-33.7ZM288.48 0L280.78 0 280.78-33.7 288.48-33.7 288.48 0ZM294.22-16.95L294.22-16.95Q294.22-24.7 298.7-29.48 303.17-34.25 310.62-34.25L310.62-34.25Q318.12-34.25 322.57-29.5 327.02-24.75 327.02-16.95L327.02-16.95Q327.02-9.2 322.55-4.42 318.07 0.35 310.62 0.35L310.62 0.35Q303.12 0.35 298.67-4.4 294.22-9.15 294.22-16.95ZM304.67-24.48Q302.47-21.7 302.47-16.95 302.47-12.2 304.67-9.43 306.87-6.65 310.62-6.65 314.37-6.65 316.57-9.43 318.77-12.2 318.77-16.95 318.77-21.7 316.57-24.48 314.37-27.25 310.62-27.25 306.87-27.25 304.67-24.48Z" opacity="1" transform="matrix(1,0,0,1,0,0)" fill="#ffffff" class="slogan-text-1" data-fill-palette-color="quaternary" id="text-1"></path></svg></g></svg></g></svg></g></svg></g><g></g></svg></g></svg></g></svg></g></svg></g><defs></defs></svg><rect width="576" height="360" fill="none" stroke="none" visibility="hidden"></rect></g></svg></g></svg>